<svg xmlns="http://www.w3.org/2000/svg" width="1180" height="520" viewBox="0 0 1180 520" role="img" aria-labelledby="title desc">
  <title id="title">Few-shot LOOCV protocol</title>
  <desc id="desc">For each held-out patient, context and validation patients are selected, then CNN and VLM predictions are compared.</desc>
  <defs>
    <style>
      .bg { fill: #fbfbfd; }
      .box { fill: #ffffff; stroke: #243044; stroke-width: 2; rx: 12; }
      .test { fill: #ffe8dd; stroke: #c1663f; stroke-width: 2; rx: 12; }
      .context { fill: #e9f2ff; stroke: #4b78b8; stroke-width: 2; rx: 12; }
      .valid { fill: #fff8e6; stroke: #b78a2a; stroke-width: 2; rx: 12; }
      .model { fill: #edf8f1; stroke: #4f9567; stroke-width: 2; rx: 12; }
      .title { font: 700 28px Arial, sans-serif; fill: #202632; }
      .subtitle { font: 400 15px Arial, sans-serif; fill: #4e5b6f; }
      .label { font: 700 16px Arial, sans-serif; fill: #202632; }
      .small { font: 400 13px Arial, sans-serif; fill: #4e5b6f; }
      .tiny { font: 400 12px Arial, sans-serif; fill: #4e5b6f; }
      .arrow { stroke: #243044; stroke-width: 2.4; fill: none; marker-end: url(#arrowhead); }
      .line { stroke: #98a2b3; stroke-width: 1.5; fill: none; stroke-dasharray: 5 5; }
    </style>
    <marker id="arrowhead" markerWidth="10" markerHeight="8" refX="9" refY="4" orient="auto">
      <path d="M0,0 L10,4 L0,8 Z" fill="#243044"/>
    </marker>
  </defs>
  <rect class="bg" x="0" y="0" width="1180" height="520"/>
  <text class="title" x="48" y="48">Patient-level few-shot LOOCV</text>
  <text class="subtitle" x="48" y="76">One patient is held out; CNN and VLM consume the exact same context selection.</text>

  <rect class="box" x="58" y="130" width="170" height="250"/>
  <text class="label" x="82" y="160">Patient pool</text>
  <text class="small" x="82" y="184">Real: 337 patients</text>
  <text class="small" x="82" y="206">Simulated: 200 patients</text>
  <circle cx="105" cy="248" r="16" fill="#d9f2e2" stroke="#4f9567" stroke-width="2"/>
  <circle cx="145" cy="248" r="16" fill="#d9f2e2" stroke="#4f9567" stroke-width="2"/>
  <circle cx="185" cy="248" r="16" fill="#ffe8dd" stroke="#c1663f" stroke-width="2"/>
  <circle cx="105" cy="296" r="16" fill="#d9f2e2" stroke="#4f9567" stroke-width="2"/>
  <circle cx="145" cy="296" r="16" fill="#ffe8dd" stroke="#c1663f" stroke-width="2"/>
  <circle cx="185" cy="296" r="16" fill="#d9f2e2" stroke="#4f9567" stroke-width="2"/>
  <text class="tiny" x="86" y="342">Each patient has V1, V2, V3</text>

  <rect class="test" x="300" y="104" width="206" height="78"/>
  <text class="label" x="328" y="134">Held-out patient</text>
  <text class="small" x="328" y="156">test only, never context</text>
  <rect class="context" x="300" y="218" width="206" height="78"/>
  <text class="label" x="328" y="248">k context patients</text>
  <text class="small" x="328" y="270">k = 2, 4, 8, 16, 32</text>
  <rect class="valid" x="300" y="332" width="206" height="78"/>
  <text class="label" x="328" y="362">Validation patients</text>
  <text class="small" x="328" y="384">threshold selection for CNN</text>

  <path class="arrow" d="M228 255 C258 255 258 143 300 143"/>
  <path class="arrow" d="M228 255 H300"/>
  <path class="arrow" d="M228 255 C258 255 258 371 300 371"/>

  <rect class="model" x="590" y="154" width="200" height="94"/>
  <text class="label" x="628" y="186">CNN branch</text>
  <text class="small" x="618" y="208">train one fold model</text>
  <text class="small" x="618" y="228">mean probability over leads</text>
  <rect class="model" x="590" y="286" width="200" height="94"/>
  <text class="label" x="628" y="318">VLM branch</text>
  <text class="small" x="618" y="340">ICL messages + ECG image</text>
  <text class="small" x="618" y="360">majority vote over leads</text>

  <path class="arrow" d="M506 143 C552 143 552 201 590 201"/>
  <path class="arrow" d="M506 257 H544 C560 257 560 201 590 201"/>
  <path class="arrow" d="M506 371 C552 371 552 201 590 201"/>
  <path class="arrow" d="M506 143 C552 143 552 333 590 333"/>
  <path class="arrow" d="M506 257 H544 C560 257 560 333 590 333"/>

  <rect class="box" x="876" y="218" width="218" height="98"/>
  <text class="label" x="916" y="250">Patient prediction</text>
  <text class="small" x="908" y="272">BRUGADA true / false</text>
  <text class="small" x="908" y="292">same fold key for both branches</text>
  <path class="arrow" d="M790 201 C826 201 826 267 876 267"/>
  <path class="arrow" d="M790 333 C826 333 826 267 876 267"/>

  <rect class="box" x="876" y="360" width="218" height="76"/>
  <text class="label" x="916" y="390">Final reports</text>
  <text class="small" x="906" y="412">accuracy, balanced accuracy, F1</text>
  <path class="arrow" d="M985 316 V360"/>

  <path class="line" d="M274 92 V432"/>
  <path class="line" d="M552 92 V432"/>
  <path class="line" d="M834 92 V432"/>
</svg>
