<svg xmlns="http://www.w3.org/2000/svg" width="1180" height="560" viewBox="0 0 1180 560" role="img" aria-labelledby="title desc">
  <title id="title">TFG high level experiment pipeline</title>
  <desc id="desc">Two research lines share ECG image generation, few-shot evaluation, and final reporting.</desc>
  <defs>
    <style>
      .bg { fill: #f7f8fb; }
      .laneA { fill: #e9f2ff; stroke: #4b78b8; }
      .laneB { fill: #edf8f1; stroke: #4f9567; }
      .shared { fill: #fff8e6; stroke: #b78a2a; }
      .box { fill: #ffffff; stroke: #243044; stroke-width: 2; rx: 12; }
      .title { font: 700 28px Arial, sans-serif; fill: #202632; }
      .subtitle { font: 400 15px Arial, sans-serif; fill: #4e5b6f; }
      .laneTitle { font: 700 19px Arial, sans-serif; fill: #202632; }
      .label { font: 700 16px Arial, sans-serif; fill: #202632; }
      .small { font: 400 13px Arial, sans-serif; fill: #4e5b6f; }
      .arrow { stroke: #243044; stroke-width: 2.4; fill: none; marker-end: url(#arrowhead); }
      .statusDone { fill: #d9f2e2; stroke: #4f9567; }
      .statusTodo { fill: #ffe8dd; stroke: #c1663f; }
      .pillText { font: 700 12px Arial, sans-serif; fill: #202632; }
    </style>
    <marker id="arrowhead" markerWidth="10" markerHeight="8" refX="9" refY="4" orient="auto">
      <path d="M0,0 L10,4 L0,8 Z" fill="#243044"/>
    </marker>
  </defs>
  <rect class="bg" x="0" y="0" width="1180" height="560"/>
  <text class="title" x="48" y="48">ECG few-shot TFG pipeline</text>
  <text class="subtitle" x="48" y="76">Two complementary lines: synthetic morphology detection and real Brugada-HUCA diagnosis.</text>

  <rect class="laneA" x="40" y="108" width="1100" height="164" rx="18" stroke-width="2"/>
  <text class="laneTitle" x="68" y="142">Line A - Synthetic morphology pattern detection</text>
  <rect class="box" x="74" y="168" width="178" height="66"/>
  <text class="label" x="96" y="196">Simulator</text>
  <text class="small" x="96" y="216">RBBB / ST / T-wave</text>
  <rect class="box" x="316" y="168" width="190" height="66"/>
  <text class="label" x="338" y="196">Prompt sweep</text>
  <text class="small" x="338" y="216">label-only + morphology</text>
  <rect class="box" x="570" y="168" width="178" height="66"/>
  <text class="label" x="596" y="196">VLM ICL</text>
  <text class="small" x="596" y="216">k = 0..32, 3 seeds</text>
  <rect class="box" x="812" y="168" width="178" height="66"/>
  <text class="label" x="836" y="196">Reports</text>
  <text class="small" x="836" y="216">pattern metrics</text>
  <rect class="statusTodo" x="1010" y="176" width="88" height="34" rx="17" stroke-width="2"/>
  <text class="pillText" x="1030" y="198">PENDING</text>

  <path class="arrow" d="M252 201 H316"/>
  <path class="arrow" d="M506 201 H570"/>
  <path class="arrow" d="M748 201 H812"/>

  <rect class="laneB" x="40" y="306" width="1100" height="184" rx="18" stroke-width="2"/>
  <text class="laneTitle" x="68" y="340">Line B - Brugada-HUCA patient-level diagnosis</text>
  <rect class="box" x="74" y="366" width="178" height="76"/>
  <text class="label" x="98" y="395">Raw WFDB</text>
  <text class="small" x="98" y="416">337 patients, V1 only</text>
  <rect class="box" x="316" y="366" width="190" height="76"/>
  <text class="label" x="338" y="395">Beat images</text>
  <text class="small" x="338" y="416">300 ms pre-R + 600 ms post-R</text>
  <rect class="box" x="570" y="350" width="178" height="66"/>
  <text class="label" x="604" y="378">CNN LOOCV</text>
  <text class="small" x="604" y="398">ResNet18 baseline</text>
  <rect class="box" x="570" y="430" width="178" height="66"/>
  <text class="label" x="604" y="458">VLM LOOCV</text>
  <text class="small" x="604" y="478">MedGemma / remote API</text>
  <rect class="box" x="812" y="390" width="178" height="76"/>
  <text class="label" x="838" y="419">Comparison</text>
  <text class="small" x="838" y="440">balanced accuracy by k</text>
  <rect class="statusDone" x="1008" y="354" width="88" height="34" rx="17" stroke-width="2"/>
  <text class="pillText" x="1034" y="376">CNN OK</text>
  <rect class="statusTodo" x="1008" y="434" width="88" height="34" rx="17" stroke-width="2"/>
  <text class="pillText" x="1031" y="456">VLM TODO</text>

  <path class="arrow" d="M252 404 H316"/>
  <path class="arrow" d="M506 404 C536 404 536 383 570 383"/>
  <path class="arrow" d="M506 404 C536 404 536 463 570 463"/>
  <path class="arrow" d="M748 383 C782 383 782 428 812 428"/>
  <path class="arrow" d="M748 463 C782 463 782 428 812 428"/>

  <rect class="shared" x="330" y="512" width="520" height="32" rx="16" stroke-width="2"/>
  <text class="small" x="356" y="533">Shared protocol: same folds, same k/seeds, patient-level aggregation, reproducible reports</text>
</svg>
